<svg xmlns="http://www.w3.org/2000/svg" 
xmlns:xlink="http://www.w3.org/1999/xlink" 
width="1080"
 zoomAndPan="magnify" 
viewBox="0 0 810 809.999993"
 height="1080"
 preserveAspectRatio="xMidYMid meet" 
 version="1.0"><path 
 fill="#0D9488" d="M 602.84375 193.816406 C 561.050781 140.464844 496.058594 106.167969 423.027344 106.167969 C 348.652344 106.167969 282.570312 141.761719 240.90625 196.832031 C 211.96875 235.0625 194.796875 282.761719 194.796875 334.394531 C 194.796875 386.027344 211.96875 433.726562 240.90625 471.960938 C 251.542969 486.03125 263.8125 498.84375 277.335938 510.109375 C 293.710938 523.71875 312.011719 535.023438 331.777344 543.652344 C 354.011719 568.988281 386.675781 584.984375 423.027344 584.984375 C 459.417969 584.984375 492.039062 568.988281 514.273438 543.652344 C 534.039062 535.023438 552.339844 523.675781 568.714844 510.109375 C 581.277344 499.679688 592.75 487.914062 602.84375 475.015625 C 633.203125 436.238281 651.292969 387.453125 651.292969 334.394531 C 651.292969 281.335938 633.203125 232.550781 602.84375 193.816406 Z M 538.941406 499.847656 C 533.707031 503.535156 528.261719 506.96875 522.691406 510.152344 C 493.292969 526.859375 459.25 536.40625 423.027344 536.40625 C 386.761719 536.40625 352.757812 526.859375 323.359375 510.152344 C 317.746094 506.96875 312.347656 503.535156 307.109375 499.847656 C 278.886719 480.042969 255.9375 453.199219 240.90625 421.875 C 228.175781 395.410156 221.054688 365.761719 221.054688 334.4375 C 221.054688 303.113281 228.175781 273.464844 240.90625 247 C 273.484375 179.242188 342.789062 132.464844 423.027344 132.464844 C 501.375 132.464844 569.34375 177.105469 602.84375 242.351562 C 617.039062 269.988281 625.039062 301.269531 625.039062 334.476562 C 625.039062 367.644531 617.039062 398.96875 602.84375 426.605469 C 587.769531 455.878906 565.742188 481.046875 538.941406 499.847656 Z M 538.941406 499.847656 " 
 fill-opacity="1" fill-rule="nonzero"/><path 
 fill="#0D9488" d="M 521.058594 476.523438 L 521.058594 497.878906 L 503.722656 497.878906 L 503.722656 497.839844 C 503.511719 497.839844 503.304688 497.878906 503.09375 497.878906 L 402.214844 497.878906 L 402.214844 391.933594 L 396.097656 391.933594 C 383.660156 391.933594 373.609375 381.839844 373.609375 369.445312 L 373.609375 354.871094 L 461.804688 354.871094 L 461.804688 369.445312 C 461.804688 381.882812 451.710938 391.933594 439.316406 391.933594 L 434.039062 391.933594 L 434.039062 464.421875 L 494.84375 464.421875 L 494.84375 345.617188 L 417.789062 345.617188 C 417.414062 345.617188 417.078125 345.324219 417.078125 344.90625 L 417.078125 268.691406 L 489.105469 268.691406 L 489.105469 240.089844 L 386.636719 240.089844 C 376.417969 240.089844 366.574219 243.898438 359.078125 250.765625 C 342.289062 266.136719 315.945312 297.667969 315.234375 344.402344 C 314.941406 362.328125 318.542969 378.15625 323.988281 391.765625 C 337.847656 426.230469 363.894531 446.582031 370.636719 451.398438 C 370.972656 451.648438 371.390625 451.691406 371.726562 451.898438 C 374.492188 453.785156 377.046875 455.542969 379.304688 457.429688 C 383.871094 461.238281 386.96875 465.511719 386.96875 471.917969 C 386.96875 481.214844 380.855469 489.085938 372.398438 491.726562 C 370.429688 492.351562 368.375 492.644531 366.199219 492.644531 C 365.445312 492.644531 364.734375 492.605469 364.019531 492.519531 C 362.222656 492.3125 360.503906 491.890625 358.871094 491.304688 C 356.859375 490.550781 355.019531 489.503906 353.386719 488.207031 C 332.277344 475.726562 314.441406 458.894531 300.828125 439.210938 C 281.945312 411.824219 271.222656 378.910156 271.347656 344.402344 C 271.515625 292.097656 296.558594 243.523438 337.386719 212.535156 C 353.84375 200.054688 373.945312 193.355469 394.632812 193.355469 L 517.667969 193.355469 L 517.5 278.949219 C 517.5 287.953125 510.171875 295.28125 501.167969 295.28125 L 444.507812 295.28125 L 444.507812 312.199219 L 496.015625 312.199219 C 505.4375 312.199219 517.082031 316.050781 518.964844 325.265625 C 519.84375 329.535156 519.84375 330.417969 519.84375 332.34375 L 520.429688 401.523438 Z M 521.058594 476.523438 "
  fill-opacity="1" fill-rule="nonzero"/><path 
  fill="#ffbc00" d="M 394.089844 476.3125 C 394.089844 486.910156 385.503906 495.535156 374.867188 495.535156 C 371.683594 495.535156 368.667969 494.78125 366.03125 493.398438 C 359.875 490.21875 355.644531 483.769531 355.644531 476.3125 C 355.644531 465.71875 364.230469 457.09375 374.867188 457.09375 C 377.128906 457.09375 379.304688 457.46875 381.359375 458.222656 C 388.769531 460.863281 394.089844 467.9375 394.089844 476.3125 Z M 394.089844 476.3125 " 
  fill-opacity="1" fill-rule="nonzero"/></svg>